<svg width="226" height="92" fill="none" xmlns="http://www.w3.org/2000/svg"><rect x=".5" y=".5" width="225" height="91" rx="3.5" stroke="#AFB1B8"/><path d="m97 21 7.308 6.918h20.384v19.298L132 54.134V21H97Z" fill="#AFB1B8"/><path d="M91 27.627v32.187h34V47.02l-20.477-19.386L91 27.626Zm27.523 27.479H96.38V33.457h1.565V53.64h20.578v1.465ZM100.791 65.784l.818-1.685h.683l-1.191 2.246v1.309h-.62v-1.309L99.287 64.1h.686l.818 1.685Zm3.511 1.042h-1.377l-.288.828h-.642l1.342-3.555h.555l1.345 3.555h-.645l-.29-.828Zm-1.204-.498h1.03l-.515-1.475-.515 1.475Zm3.638.366c0-.164.045-.315.134-.451.09-.139.266-.302.53-.491a2.319 2.319 0 0 1-.291-.444.888.888 0 0 1-.08-.354c0-.279.084-.498.254-.66.169-.162.397-.244.683-.244.259 0 .471.077.635.23.166.151.249.34.249.564a.783.783 0 0 1-.112.41 1.341 1.341 0 0 1-.369.371l-.242.176.686.81c.1-.195.149-.412.149-.651h.516c0 .437-.103.796-.308 1.076l.522.618h-.688l-.2-.237c-.254.19-.557.286-.908.286-.352 0-.634-.093-.845-.279a.932.932 0 0 1-.315-.73Zm1.177.535c.2 0 .387-.067.561-.2l-.776-.916-.076.054c-.195.148-.293.317-.293.508 0 .164.053.298.159.4a.584.584 0 0 0 .425.154Zm-.328-2.29c0 .137.084.308.252.515l.271-.185.076-.062a.439.439 0 0 0 .151-.344.311.311 0 0 0-.105-.237.37.37 0 0 0-.266-.1.347.347 0 0 0-.276.118.434.434 0 0 0-.103.295Zm6.458 1.558c-.036.379-.176.675-.42.888-.244.212-.569.318-.974.318-.283 0-.533-.067-.75-.2a1.343 1.343 0 0 1-.498-.574 2.07 2.07 0 0 1-.183-.862v-.332c0-.335.06-.63.178-.886.119-.256.289-.453.511-.591.223-.138.48-.208.771-.208.392 0 .708.107.947.32.24.213.379.514.418.903h-.615c-.03-.255-.104-.439-.225-.551-.119-.114-.294-.171-.525-.171-.268 0-.475.098-.62.295-.143.195-.216.483-.22.862v.315c0 .384.069.677.205.879.139.202.341.303.606.303.242 0 .425-.055.547-.164.122-.109.199-.29.232-.544h.615Zm3.391-.528c0 .349-.06.655-.181.918-.12.262-.293.464-.517.606-.223.14-.48.21-.772.21-.288 0-.545-.07-.771-.21a1.406 1.406 0 0 1-.523-.603 2.116 2.116 0 0 1-.185-.901v-.2c0-.347.061-.653.183-.918a1.39 1.39 0 0 1 .52-.608c.225-.142.482-.213.771-.213.29 0 .547.07.77.21.224.139.397.339.52.6.122.261.183.565.185.912v.197Zm-.618-.185c0-.394-.074-.696-.224-.906a.728.728 0 0 0-.633-.315.73.73 0 0 0-.627.315c-.15.208-.226.504-.229.886v.205c0 .39.075.693.227.906.153.213.364.32.634.32.274 0 .484-.104.63-.313.148-.208.222-.512.222-.913v-.185Z" fill="#AFB1B8"/></svg>